<svg id="Layer_1" enable-background="new 0 0 512 512" height="512" viewBox="0 0 512 512" width="512" xmlns="http://www.w3.org/2000/svg"><g><path d="m412.51 6.25c-.61-3.61-3.73-6.25-7.39-6.25h-119.65c-1.15 0-2.29.26-3.32.77-.34.17-4.47 2.23-10.68 6.65l47.85 81.93c9.5-17.89 23.41-33.99 41.6-48.14 23.82-18.53 46.44-26.55 46.66-26.63 3.46-1.2 5.54-4.73 4.93-8.33z" fill="#78c2ef"/><path d="m319.32 89.35c-6.94 13.03-11.55 27.02-13.78 41.9l-98.43 3.9c-1.42-1.58-2.11-3.7-1.88-5.81 5.26-49.29 25.69-81.5 41.89-99.84 9.08-10.28 17.85-17.46 24.35-22.08 2.75 2.69 5.56 5.64 8.39 8.84 13.55 15.33 29.72 39.24 39.46 73.09z" fill="#74a1e2"/><path d="m306.772 129.339c-5.263-49.284-25.689-81.495-41.897-99.838-17.748-20.086-34.332-28.386-35.029-28.729-1.031-.508-2.165-.772-3.314-.772h-119.652c-3.658 0-6.779 2.641-7.391 6.248-.612 3.606 1.472 7.13 4.926 8.336.226.079 22.843 8.095 46.667 26.623 31.442 24.452 50.075 54.748 55.382 90.044l98.429 3.898c1.422-1.582 2.105-3.694 1.879-5.81z" fill="#78c2ef"/><g fill="#ffa757"><path d="m285.16 134.354-6.709-3.353-6.692-3.386c-.333.658-8.117 16.351-4.952 36.779l14.823-2.297c-2.4-15.488 3.471-27.622 3.53-27.743z"/><path d="m226.84 134.354c.06.121 5.93 12.255 3.53 27.744l14.823 2.297c3.165-20.428-4.619-36.121-4.952-36.779z"/></g><path d="m382.34 206.3v26.21l-.01 200.78v26.2c-32.36 32.42-77.06 52.51-126.33 52.51-3.69 0-7.35-.11-10.98-.33-44.92-2.75-85.42-22.19-115.36-52.19v-253.18c29.94-29.99 70.44-49.43 115.36-52.18 3.63-.22 7.29-.33 10.98-.33 49.28 0 93.98 20.09 126.34 52.51z" fill="#ffe0a9"/><g fill="#ffcb78"><path d="m382.33 433.29v26.2c-32.36 32.42-77.06 52.51-126.33 52.51-3.69 0-7.35-.11-10.98-.33 57.14-3.47 107.05-33.73 137.31-78.38z"/><path d="m382.34 206.3v26.21c-30.27-44.66-80.18-74.92-137.32-78.39 3.63-.22 7.29-.33 10.98-.33 49.28 0 93.98 20.09 126.34 52.51z"/></g><g fill="#ffcb78"><path d="m434.76 332.89c0 49.39-20.05 94.17-52.43 126.6l-11.28-11.3-20.27-20.32v-189.95l20.28-20.32 11.28-11.3c32.37 32.44 52.42 77.21 52.42 126.59z"/><path d="m161.22 237.92v189.95l-31.56 31.61c-32.37-32.43-52.42-77.21-52.42-126.59s20.05-94.15 52.42-126.59z"/></g><path d="m434.76 332.89c0 49.39-20.05 94.17-52.43 126.6l-11.28-11.3c26.25-31.15 42.05-71.37 42.05-115.29s-15.8-84.15-42.04-115.3l11.28-11.3c32.37 32.44 52.42 77.21 52.42 126.59z" fill="#ffa757"/><path d="m394.66 332.89c0 76.73-62.08 138.94-138.66 138.94-3.7 0-7.37-.15-11-.44-71.44-5.61-127.66-65.48-127.66-138.5s56.22-132.88 127.66-138.49c3.63-.29 7.3-.44 11-.44 76.58 0 138.66 62.2 138.66 138.93z" fill="#ffa757"/><path d="m394.66 332.89c0 76.73-62.08 138.94-138.66 138.94-3.7 0-7.37-.15-11-.44 71.44-5.61 127.66-65.48 127.66-138.5s-56.22-132.88-127.66-138.49c3.63-.29 7.3-.44 11-.44 76.58 0 138.66 62.2 138.66 138.93z" fill="#ff895a"/><path d="m302.22 386.66c-.598-.081-11.387-1.522-25.842-2.247 2.69-66.098-.704-128.369-.742-129.038-.372-6.667-5.088-12.288-11.579-13.801-6.491-1.512-13.199 1.448-16.468 7.266-14.381 25.594-36.956 35.581-37.558 35.842-7.616 3.172-11.251 11.917-8.122 19.574 3.14 7.683 11.902 11.359 19.565 8.213.787-.323 12.244-5.135 25.565-16.5.514 23.682.687 55.608-.683 88.375-15.161.698-26.639 2.232-27.257 2.315-8.208 1.111-13.96 8.677-12.855 16.901 1.105 8.225 8.653 13.989 16.865 12.89.177-.024 17.931-2.383 37.5-2.387h.064.066c19.557.006 37.294 2.363 37.465 2.386.682.092 1.357.137 2.027.137 7.392 0 13.829-5.477 14.846-13.02 1.109-8.226-4.648-15.795-12.857-16.906z" fill="#ffe0a9"/><g fill="#ffcb78"><circle cx="347.93" cy="292.496" r="7.5"/><circle cx="157.07" cy="332.992" r="7.5"/><circle cx="164.07" cy="373.496" r="7.5"/><circle cx="164.07" cy="292.496" r="7.5"/><circle cx="347.93" cy="373.496" r="7.5"/><circle cx="354.93" cy="332.992" r="7.5"/><circle cx="157.07" cy="332.992" r="7.5"/><circle cx="164.07" cy="292.496" r="7.5"/><circle cx="164.07" cy="373.496" r="7.5"/><circle cx="354.93" cy="332.992" r="7.5"/><circle cx="347.93" cy="292.496" r="7.5"/><circle cx="347.93" cy="373.496" r="7.5"/></g><path d="m341.049 128.777c-1.637-.25-40.598-6.142-85.049-6.142s-83.412 5.892-85.049 6.142c-4.094.627-6.904 4.455-6.277 8.549.626 4.094 4.452 6.905 8.548 6.278.39-.06 39.516-5.969 82.778-5.969s82.388 5.91 82.778 5.969c.385.059.767.087 1.144.087 3.641 0 6.837-2.656 7.405-6.366.626-4.093-2.184-7.92-6.278-8.548z" fill="#ffe0a9"/></g></svg>