<svg id="Layer_1" enable-background="new 0 0 512 512" height="512" viewBox="0 0 512 512" width="512" xmlns="http://www.w3.org/2000/svg"><g><path d="m412.51 6.25c-.61-3.61-3.73-6.25-7.39-6.25h-119.65c-1.15 0-2.29.26-3.32.77-.34.17-4.47 2.23-10.68 6.65l47.85 81.93c9.5-17.89 23.41-33.99 41.6-48.14 23.82-18.53 46.44-26.55 46.66-26.63 3.46-1.2 5.54-4.73 4.93-8.33z" fill="#3caf91"/><path d="m319.32 89.35c-6.94 13.03-11.55 27.02-13.78 41.9l-98.43 3.9c-1.42-1.58-2.11-3.7-1.88-5.81 5.26-49.29 25.69-81.5 41.89-99.84 9.08-10.28 17.85-17.46 24.35-22.08 2.75 2.69 5.56 5.64 8.39 8.84 13.55 15.33 29.72 39.24 39.46 73.09z" fill="#218780"/><path d="m306.772 129.339c-5.263-49.284-25.689-81.495-41.897-99.838-17.748-20.086-34.332-28.386-35.029-28.729-1.031-.508-2.165-.772-3.314-.772h-119.652c-3.658 0-6.779 2.641-7.391 6.248-.612 3.606 1.472 7.13 4.926 8.336.226.079 22.843 8.095 46.667 26.623 31.442 24.452 50.075 54.748 55.382 90.044l98.429 3.898c1.422-1.582 2.105-3.694 1.879-5.81z" fill="#3caf91"/><g fill="#a9bbe0"><path d="m285.16 134.354-6.709-3.353-6.692-3.386c-.333.658-8.117 16.351-4.952 36.779l14.823-2.297c-2.4-15.488 3.471-27.622 3.53-27.743z"/><path d="m226.84 134.354c.06.121 5.93 12.255 3.53 27.744l14.823 2.297c3.165-20.428-4.619-36.121-4.952-36.779z"/></g><path d="m382.34 206.3v26.21l-.01 200.78v26.2c-32.36 32.42-77.06 52.51-126.33 52.51-3.69 0-7.35-.11-10.98-.33-44.92-2.75-85.42-22.19-115.36-52.19v-253.18c29.94-29.99 70.44-49.43 115.36-52.18 3.63-.22 7.29-.33 10.98-.33 49.28 0 93.98 20.09 126.34 52.51z" fill="#e5eaf9"/><g fill="#cbd6ef"><path d="m382.33 433.29v26.2c-32.36 32.42-77.06 52.51-126.33 52.51-3.69 0-7.35-.11-10.98-.33 57.14-3.47 107.05-33.73 137.31-78.38z"/><path d="m382.34 206.3v26.21c-30.27-44.66-80.18-74.92-137.32-78.39 3.63-.22 7.29-.33 10.98-.33 49.28 0 93.98 20.09 126.34 52.51z"/></g><g fill="#cbd6ef"><path d="m434.76 332.89c0 49.39-20.05 94.17-52.43 126.6l-11.28-11.3-20.27-20.32v-189.95l20.28-20.32 11.28-11.3c32.37 32.44 52.42 77.21 52.42 126.59z"/><path d="m161.22 237.92v189.95l-31.56 31.61c-32.37-32.43-52.42-77.21-52.42-126.59s20.05-94.15 52.42-126.59z"/></g><path d="m434.76 332.89c0 49.39-20.05 94.17-52.43 126.6l-11.28-11.3c26.25-31.15 42.05-71.37 42.05-115.29s-15.8-84.15-42.04-115.3l11.28-11.3c32.37 32.44 52.42 77.21 52.42 126.59z" fill="#a9bbe0"/><path d="m394.66 332.89c0 76.73-62.08 138.94-138.66 138.94-3.7 0-7.37-.15-11-.44-71.44-5.61-127.66-65.48-127.66-138.5s56.22-132.88 127.66-138.49c3.63-.29 7.3-.44 11-.44 76.58 0 138.66 62.2 138.66 138.93z" fill="#a9bbe0"/><path d="m394.66 332.89c0 76.73-62.08 138.94-138.66 138.94-3.7 0-7.37-.15-11-.44 71.44-5.61 127.66-65.48 127.66-138.5s-56.22-132.88-127.66-138.49c3.63-.29 7.3-.44 11-.44 76.58 0 138.66 62.2 138.66 138.93z" fill="#8794c6"/><g><g fill="#cbd6ef"><circle cx="347.93" cy="292.496" r="7.5"/><circle cx="157.07" cy="332.992" r="7.5"/><circle cx="164.07" cy="373.496" r="7.5"/></g><circle cx="164.07" cy="292.496" fill="#ffcb78" r="7.5"/><circle cx="347.93" cy="373.496" fill="#cbd6ef" r="7.5"/><circle cx="354.93" cy="332.992" fill="#cbd6ef" r="7.5"/><circle cx="164.07" cy="292.496" fill="#cbd6ef" r="7.5"/></g><g fill="#e5eaf9"><path d="m341.049 128.777c-1.637-.25-40.598-6.142-85.049-6.142s-83.412 5.892-85.049 6.142c-4.094.627-6.904 4.455-6.277 8.549.626 4.094 4.452 6.905 8.548 6.278.39-.06 39.516-5.969 82.778-5.969s82.388 5.91 82.778 5.969c.385.059.767.087 1.144.087 3.641 0 6.837-2.656 7.405-6.366.626-4.093-2.184-7.92-6.278-8.548z"/><path d="m290.111 376.682c-5.962 1.216-11.973 1.959-17.817 2.361 7.299-6.116 13.662-12.979 18.977-20.511 13.327-18.887 19.244-41.367 16.234-61.677-2.027-13.677-7.867-25.478-16.89-34.125-9.83-9.421-22.708-14.4-37.243-14.4-19.798 0-31.219 8.515-37.312 15.658-15.865 18.596-12.075 45.76-11.591 48.796 1.305 8.18 8.997 13.793 17.182 12.489 8.181-1.305 13.761-8.956 12.456-17.137-.629-4.236-1.092-17.873 4.823-24.731 1.083-1.255 4.376-5.074 14.443-5.074 19.008 0 23.436 16.031 24.458 22.923 3.169 21.387-10.974 58.92-62.927 74.663-6.503 1.971-10.87 8.068-10.642 14.859.229 6.792 4.995 12.582 11.616 14.111 1.137.263 20.116 4.554 44.722 4.553 11.068 0 23.279-.869 35.508-3.363 8.117-1.655 13.355-9.578 11.7-17.695s-9.578-13.36-17.697-11.7z"/></g></g></svg>