<svg id="Capa_1" enable-background="new 0 0 511.876 511.876" height="512" viewBox="0 0 511.876 511.876" width="512" xmlns="http://www.w3.org/2000/svg"><g><g><g><path d="m337.307 371.141-81.636-42.935-81.636 42.935 15.586-90.923-66.035-64.38 91.26-13.257 40.825-82.72 40.825 82.72 91.26 13.257-66.035 64.38z" fill="#ffdf40"/></g><g><g><path d="m187.57 49.538-17.399-41.4-13.801 5.7c-19.2 8.101-32.999 25.501-36 45.601-2.699 16.8 1.5 34.799 12.599 50.7 17.015-17.006 36.883-30.153 58.801-39.6v-.3c.001-6.6-1.499-13.8-4.2-20.701z" fill="#79cc52"/></g></g><g><g><path d="m102.372 104.739-35.101-28.5-9.3 11.7c-13.499 16.5-17.098 37.8-10.499 56.7 5.7 17.399 19.501 31.8 38.699 41.1 6.901-21.601 18.001-41.7 32.1-59.101-3-8.1-8.399-15.6-15.899-21.899z" fill="#79cc52"/></g></g><g><g><path d="m79.872 207.939c-6.601-6.901-16.201-12.301-27.301-14.7l-48.694-8.701-3.001 14.7c-4.199 20.101 7.296 41.4 21.996 55.201 22.557 20.905 51.299 17.528 54.3 17.999-2.699-21.899-1.5-43.799 2.701-64.199v-.3z" fill="#79cc52"/></g></g><g><g><path d="m81.371 295.238c-9.3-2.999-20.4-3.6-31.199-.599l-43.2 12.9 4.499 14.7c7.788 24.846 29.641 42.599 57.9 42.599 12.601 0 25.801-3.6 38.101-10.8-12.002-17.7-21.001-37.499-26.101-58.8z" fill="#79cc52"/></g></g><g><g><path d="m120.971 371.738c-8.701 2.1-17.701 6.601-25.201 13.801l-32.1 31.8 10.801 10.499c13.815 13.817 33.346 21.117 54.899 16.501 16.201-3.301 31.501-13.801 42.301-30-19.2-11.4-36.601-25.801-50.7-42.601z" fill="#79cc52"/></g></g><g><g><path d="m390.971 59.438c-3.001-20.099-16.8-37.5-36-45.601l-13.801-5.7-17.399 41.7c-2.701 6.899-4.2 13.801-4.2 20.7 21.899 9.6 41.7 23.101 58.5 39.6 11.401-15.899 15.599-33.899 12.9-50.699z" fill="#59b348"/></g></g><g><g><path d="m453.372 87.939-9.3-11.7-35.402 28.5c-7.2 6.299-12.599 13.799-15.599 22.2 13.799 17.401 24.899 36.899 32.1 58.5 19.199-9 32.999-23.401 38.699-40.501 6.6-19.199 3-40.5-10.498-56.999z" fill="#59b348"/></g></g><g><g><path d="m510.633 199.238-3.001-14.7-49.161 8.701c-10.8 2.399-20.4 7.798-27.001 15 2.701 12.9 4.2 26.699 4.2 40.499 0 8.101-.601 15.901-1.5 23.699 3.009-.451 37.633 2.893 59.062-17.999 15.001-13.8 21.6-35.099 17.401-55.2z" fill="#59b348"/></g></g><g><g><path d="m460.872 294.639c-10.801-3.001-21.601-2.701-30.901.298-5.099 21.301-13.801 41.4-25.499 59.401 12.299 6.899 25.499 10.8 37.798 10.8 25.089 0 49.185-16.051 57.601-42.9l4.499-14.7z" fill="#59b348"/></g></g><g><g><path d="m415.271 385.238c-6.899-6.899-15.3-11.1-23.699-13.2-14.401 17.401-31.501 32.401-51 44.101 10.8 15 25.8 24.899 40.8 28.2 22.485 4.491 41.397-2.397 55.499-16.501l10.801-10.499z" fill="#59b348"/></g></g></g><path d="m337.307 371.141-15.586-90.923 66.035-64.38-91.26-13.257-40.825-82.72v208.345z" fill="#ffbe40"/><path d="m312.672 435.337c11.1 12.001 17.999 27.902 17.999 45.3v23.101h-30v-23.101c0-20.4-16.5-36.899-36.899-36.899-1.501 0-3.001-.3-4.501-.3-1.199 0-2.401.3-3.6.3-24.901 0-45 20.099-45 45v15h-30v-15c0-21 9-40.201 23.101-53.699-73.5-21.901-130.201-82.202-141-157.5-15.3-106.501 55.199-203.401 160.499-221.1l14.7-2.401 5.101 29.399-15 2.701c-88.801 14.7-148.5 96.899-135.601 186.899 11.1 77.701 80.4 136.8 163.2 140.099 1.5.3 3.3.3 5.1.3 88.5-2.699 159.901-75.3 159.901-164.7 0-81-57.9-149.399-137.401-162.599l-15-2.701 5.101-29.399 14.7 2.401c94.199 15.899 162.599 96.599 162.599 192.299 0 87.601-58.2 162.002-137.999 186.6z" fill="#a0e65c"/><path d="m312.672 435.337c11.1 12.001 17.999 27.902 17.999 45.3v23.101h-30v-23.101c0-20.4-16.5-36.899-36.899-36.899-1.501 0-3.001-.3-4.501-.3-1.199 0-2.401.3-3.6.3v-30.601c1.5.3 3.3.3 5.1.3 88.5-2.699 159.901-75.3 159.901-164.7 0-81-57.9-149.399-137.401-162.599l-15-2.701 5.101-29.399 14.7 2.401c94.199 15.899 162.599 96.599 162.599 192.299 0 87.6-58.2 162.001-137.999 186.599z" fill="#79cc52"/></g></svg>