<?xml version="1.0" encoding="iso-8859-1"?>
<!-- Generator: Adobe Illustrator 19.0.0, SVG Export Plug-In . SVG Version: 6.00 Build 0)  -->
<svg version="1.1" id="Capa_1" xmlns="http://www.w3.org/2000/svg" xmlns:xlink="http://www.w3.org/1999/xlink" x="0px" y="0px"
	 viewBox="0 0 512 512" style="enable-background:new 0 0 512 512;" xml:space="preserve">
<path style="fill:#FDBC4B;" d="M356.416,0H155.568C143.76,53.696,95.936,93.936,38.704,93.936v76.384
	c0,152.528,83.328,268.656,217.168,341.68c134.08-73.024,217.408-189.152,217.408-341.68V93.936
	C415.856,93.936,368.192,53.696,356.416,0z"/>
<path style="fill:#F3F3F3;" d="M255.904,470c-112.496-69.696-181.2-166.368-181.2-300.288V125.28l8.512-2.576
	c41.392-12.56,76.096-41.952,95.216-80.64l3.312-6.688h148.48l3.296,6.688c19.12,38.704,53.824,68.096,95.248,80.64l8.528,2.576
	v44.416C437.296,302.016,369.952,399.712,255.904,470z M98.704,142.864v26.848c0,140.496,84,225.024,157.2,272.016
	c73.28-46.96,157.376-131.472,157.376-272.016v-26.848c-41.6-14.912-76.608-44.784-97.808-83.488H196.48
	C175.296,98.064,140.304,127.936,98.704,142.864z"/>
<path style="fill:#4B9FD8;" d="M98.704,142.864v26.848c0,140.496,84,225.024,157.2,272.016
	c73.28-46.96,157.376-131.472,157.376-272.016v-26.848c-41.6-14.912-76.608-44.784-97.808-83.488H196.48
	C175.296,98.064,140.304,127.936,98.704,142.864z"/>
<path style="fill:#3789C9;" d="M98.704,142.864v26.848c0,109.44,50.992,184.784,108.112,235.024h54.928
	c10.736,0,20.336-8.048,20.976-18.8c0.512-11.504-8.56-20.976-19.952-20.976l-64.16-0.016c-26.16,0-26.752-39.808,1.12-39.808h37.28
	c10.72-0.304,19.376-9.088,19.376-19.888c0-10.992-8.944-19.952-19.952-19.952c-50.304,0-73.44,4.848-73.136-16.752v-1.408
	c-0.64-9.072,6.656-16.752,15.728-16.752H303.84c10.864,0,20.464-8.048,21.088-18.8c0.512-11.504-8.56-20.976-19.952-20.976H186.64
	c-10.032,0-17.616-8.896-16.624-17.904v-0.224c-0.128-9.712,7.792-17.648,17.52-17.648h82.016c10.864,0,20.464-8.048,21.104-18.928
	c0.512-11.376-8.56-20.976-19.952-20.976c-86.208,0-103.808,5.008-103.504-17.648c0-0.128,0-0.128,0-0.256s0-0.128,0-0.256
	c-0.128-9.584,7.024-17.648,16.624-17.648h90.912c10.736,0,20.336-8.048,20.976-18.8c0.512-11.504-8.56-20.976-19.952-20.976h-79.28
	C175.296,98.064,140.304,127.936,98.704,142.864z"/>
<g>
	<path style="fill:#FDBC4B;" d="M199.536,299.568c-0.336-0.128-0.672-0.24-1.008-0.368c-2.736,2.496-4.352,5.456-5.648,8.608
		c-4.64,12.128-0.032,12.112,0.048,23.232c-7.04-9.312-13.056-19.168-18.032-29.44c0.528-8.16,2.88-7.552,6.624-13.792
		c2.368-4.064,4.448-12.928,3.904-19.488c-0.304-0.192-0.592-0.384-0.896-0.576c-3.136,1.648-5.28,3.984-7.168,6.544
		c-7.072,10.16-2.4,11.12-5.104,21.616c-4.528-10.256-8.048-20.896-10.544-31.728c0.576-2.336,1.328-4.528,2.624-6.24
		c1.76-2.464,4.688-3.904,6.784-6c3.072-3.152,6.72-10.832,7.392-17.136c-0.256-0.256-0.496-0.512-0.752-0.768
		c-3.28,0.784-5.76,2.432-8.032,4.352c-9.504,8.4-4.032,10.336-9.408,19.216c-2.048-10.736-3.12-21.632-3.184-32.56
		c5.088-11.888,16.464-6.704,21.872-24.752c-0.192-0.304-0.384-0.608-0.576-0.912c-3.216-0.08-5.84,0.896-8.32,2.144
		c-10.96,5.936-5.392,9.104-12.88,16.208c0.368-10.672,1.68-21.328,3.968-31.84c0.112-0.16,0.208-0.32,0.32-0.48
		c7.968-12.096,9.2-2.096,20.144-12.144c1.984-1.92,3.888-4.016,5.504-7.136c-0.112-0.352-0.24-0.688-0.352-1.04
		c-2.944-0.864-5.552-0.56-8.064,0.032c-11.808,3.168-6.768,8.192-15.616,12.784c2.768-10.448,6.512-20.704,11.216-30.656
		c0.096,0.112,0.176,0.24,0.272,0.352c2.208-2.256,4.8-4.896,7.856-5.568c2.352-0.608,4.96,0.336,7.344,0.16
		c2.4-0.208,4.608-1.36,6.832-2.72c2.208-1.44,4.384-3.056,6.528-5.792c-0.032-0.368-0.064-0.752-0.08-1.12
		c-2.496-1.536-4.912-1.84-7.328-1.84c-9.168,0.208-7.184,3.68-13.84,7.52c-1.12,0.688-2.272,1.104-3.472,1.344
		c0.032-0.24,0.048-0.448,0.08-0.672c7.632-14.16,17.344-27.568,29.12-39.76c-11.168,10.8-20.672,22.688-28.496,35.376
		c0.032-0.384,0.192-0.816,0.192-1.184c0.528-7.936-0.4-15.984-5.84-21.936c-0.4,0.144-0.8,0.288-1.2,0.448
		c-6.224,10.912-7.184,23.248,0.64,33.552c-4.48,8.544-8.256,17.376-11.312,26.416c-1.456-8.448-4.624-16.848-11.36-22.016
		c-0.32,0.208-0.688,0.432-1.04,0.672c-3.312,12.384-1.04,25.68,8.624,34.112c-2.304,8.96-3.936,18.096-4.864,27.296
		c-3.696-8.032-8.704-15.856-16.672-20.016c-0.304,0.288-0.592,0.592-0.88,0.896c-0.208,13.344,5.36,26.192,16.672,32.992
		c-0.24,9.072,0.192,18.192,1.296,27.232c-5.616-7.184-12.656-14.128-21.6-16.992c-0.224,0.352-0.448,0.704-0.672,1.072
		c3.072,13.456,11.472,25.12,24.576,30.16c1.792,8.848,4.24,17.584,7.344,26.176c-11.136-8.88-19.456-12.016-26.08-12.912
		c-0.144,0.4-0.288,0.8-0.416,1.2c6.4,12.912,17.36,22.848,32.192,25.632c3.776,8.256,8.208,16.304,13.296,24.064
		c-13.824-6.608-23.168-8.096-29.968-7.808c-0.048,0.432-0.096,0.864-0.128,1.296c9.84,11.776,23.344,19.328,39.392,19.456
		c3.936,5.024,8.192,9.888,12.736,14.592c2.4-2.4,4.784-4.784,7.184-7.184c-5.216-5.04-10.064-10.336-14.544-15.84
		C194.992,322.912,205.824,321.28,199.536,299.568z"/>
	<path style="fill:#FDBC4B;" d="M348.928,293.36c3.104-8.576,5.552-17.328,7.344-26.176c13.136-5.04,21.52-16.72,24.576-30.16
		c-0.224-0.352-0.448-0.72-0.672-1.072c-8.96,2.864-15.984,9.824-21.6,16.992c1.104-9.056,1.536-18.16,1.296-27.232
		c9.84-5.904,16.896-17.76,16.672-32.992c-0.288-0.304-0.592-0.592-0.88-0.896c-7.92,4.144-12.928,11.904-16.672,20.016
		c-0.928-9.2-2.56-18.32-4.864-27.296c9.536-8.144,11.968-21.584,8.624-34.112c-0.352-0.224-0.704-0.448-1.056-0.672
		c-6.704,5.152-9.888,13.6-11.36,22.016c-3.056-9.04-6.816-17.888-11.296-26.416c7.776-10.288,6.832-22.672,0.64-33.552
		c-0.4-0.144-0.8-0.288-1.2-0.448c-6.112,6.672-6.176,14.608-5.648,23.12c-7.824-12.688-17.344-24.592-28.496-35.376
		c11.792,12.192,21.488,25.6,29.12,39.76c0.032,0.224,0.048,0.448,0.08,0.672c-11.36-2.368-4.832-8.544-17.296-8.912
		c-2.416,0.016-4.832,0.304-7.328,1.84c-0.032,0.368-0.064,0.752-0.08,1.12c2.88,3.664,8.848,8.112,13.36,8.496
		c8.048,0.576,6.848-3.136,15.2,5.408c0.096-0.112,0.176-0.24,0.272-0.352c4.704,9.936,8.448,20.208,11.216,30.656
		c-10.656-5.536-3.312-9.472-15.616-12.784c-2.528-0.592-5.12-0.896-8.064-0.032c-0.112,0.352-0.224,0.688-0.352,1.04
		c2.24,4.336,7.52,9.968,12.016,11.472c7.2,2.352,7.872-0.944,13.632,7.808c0.112,0.16,0.208,0.32,0.32,0.48
		c2.272,10.512,3.6,21.184,3.968,31.84c-7.488-7.104-1.92-10.288-12.88-16.208c-2.48-1.248-5.104-2.208-8.32-2.144
		c-0.192,0.304-0.384,0.608-0.576,0.912c5.408,18.016,16.8,12.896,21.872,24.752c-0.064,10.928-1.136,21.824-3.184,32.56
		c-3.392-5.6-1.728-6.272-3.968-11.984c-2.048-5.072-7.808-10.208-13.472-11.568c-0.256,0.256-0.496,0.512-0.752,0.768
		c2.08,19.648,13.808,17.088,16.8,29.376c-2.496,10.832-6.016,21.472-10.544,31.728c-1.952-7.552-0.08-5.904-1.168-12.768
		c-0.976-5.744-5.68-12.528-11.104-15.392c-0.304,0.192-0.592,0.384-0.896,0.576c-1.776,21.632,9.68,20.304,10.528,33.296
		c-4.976,10.272-10.992,20.144-18.032,29.44c0.064-7.36,1.504-6.544,1.936-13.008c0.368-6.24-2.72-14.448-7.52-18.832
		c-0.336,0.128-0.672,0.256-1.008,0.368c-5.728,19.792,4.288,25.264,2.816,36.304c-4.48,5.504-9.328,10.8-14.544,15.84
		c2.4,2.4,4.784,4.784,7.184,7.184c4.544-4.704,8.784-9.568,12.736-14.592c16.064-0.128,29.552-7.68,39.392-19.456
		c-0.048-0.432-0.08-0.864-0.128-1.296c-6.8-0.288-16.144,1.2-29.968,7.808c5.072-7.76,9.504-15.808,13.296-24.064
		c14.352-2.704,25.68-12.496,32.192-25.632c-0.144-0.4-0.272-0.8-0.416-1.2C368.384,281.344,360.064,284.48,348.928,293.36z"/>
</g>
<path style="fill:#E95454;" d="M28.224,484.656c35.28-15.264,71.696-26.816,108.72-34.688c-4.912-23.168-9.84-46.352-14.752-69.52
	C80.592,389.28,39.648,402.272,0,419.424c17.056,5.52,33.552,11.744,49.456,18.608C41.584,453.472,34.512,469.04,28.224,484.656z"/>
<path style="fill:#CD494C;" d="M130.144,417.92c2.272,10.688,4.528,21.376,6.8,32.064c-17.296-7.488-35.36-14.208-54.112-20
	C98.464,425.312,114.256,421.296,130.144,417.92z"/>
<path style="fill:#E95454;" d="M483.776,484.656c-35.28-15.264-71.696-26.816-108.72-34.688c4.912-23.168,9.84-46.352,14.752-69.52
	c41.6,8.832,82.544,21.824,122.192,38.976c-17.056,5.52-33.552,11.744-49.456,18.608
	C470.416,453.472,477.488,469.04,483.776,484.656z"/>
<path style="fill:#CD494C;" d="M381.856,417.92c-2.272,10.688-4.528,21.376-6.8,32.064c17.296-7.488,35.36-14.208,54.112-20
	C413.536,425.312,397.744,421.296,381.856,417.92z"/>
<path style="fill:#ED6362;" d="M429.168,429.968c-112.96-33.664-233.376-33.664-346.336,0c-8.768-29.392-17.52-58.8-26.288-88.208
	c130.112-38.784,268.8-38.784,398.928,0C446.704,371.168,437.936,400.576,429.168,429.968z"/>
<g>
	<path style="fill:#FFFFFF;" d="M158.416,336.784c3.888,7.056,7.68,14.16,11.376,21.28c8.752-1.312,17.536-2.416,26.32-3.328
		c-6.688,5.408-13.2,10.944-19.568,16.592c3.584,7.168,7.088,14.368,10.48,21.6c-7.216-3.824-14.592-7.504-22.08-11.024
		c-6.16,5.76-12.144,11.632-17.968,17.6c1.2-7.984,2.512-15.968,3.904-23.968c-7.664-3.328-15.472-6.512-23.408-9.536
		c8.672-1.968,17.376-3.728,26.112-5.28C155.088,352.736,156.704,344.768,158.416,336.784z"/>
	<path style="fill:#FFFFFF;" d="M256,328.816c2.816,7.6,5.552,15.232,8.176,22.88c8.816,0.128,17.632,0.448,26.448,0.976
		c-7.376,4.272-14.608,8.672-21.68,13.216c2.512,7.664,4.944,15.344,7.264,23.056c-6.576-4.944-13.312-9.776-20.208-14.48
		c-6.896,4.704-13.632,9.536-20.208,14.48c2.32-7.696,4.752-15.376,7.264-23.056c-7.072-4.544-14.304-8.96-21.68-13.216
		c8.816-0.528,17.632-0.848,26.448-0.976C250.448,344.048,253.184,336.432,256,328.816z"/>
	<path style="fill:#FFFFFF;" d="M353.584,336.784c1.712,7.984,3.312,15.952,4.832,23.936c8.736,1.552,17.44,3.312,26.112,5.28
		c-7.936,3.008-15.744,6.192-23.408,9.536c1.392,7.984,2.704,15.968,3.904,23.968c-5.824-5.968-11.808-11.84-17.968-17.6
		c-7.504,3.52-14.864,7.2-22.08,11.024c3.408-7.232,6.896-14.432,10.48-21.6c-6.352-5.632-12.88-11.168-19.568-16.592
		c8.784,0.912,17.568,2.016,26.32,3.328C345.92,350.944,349.712,343.84,353.584,336.784z"/>
</g>
<g>
</g>
<g>
</g>
<g>
</g>
<g>
</g>
<g>
</g>
<g>
</g>
<g>
</g>
<g>
</g>
<g>
</g>
<g>
</g>
<g>
</g>
<g>
</g>
<g>
</g>
<g>
</g>
<g>
</g>
</svg>
