<svg id="Layer_1" enable-background="new 0 0 512 512" height="512" viewBox="0 0 512 512" width="512" xmlns="http://www.w3.org/2000/svg"><g><path d="m449.82 325.77c-.2.51-.45 1.01-.75 1.47l-72.45 110.55c-.31.47-.67.91-1.08 1.31-31.59 30.22-70.9 54.58-116.84 72.39-.87.34-1.79.51-2.71.51s-1.84-.17-2.72-.51c-45.94-17.82-85.25-42.17-116.84-72.39-.41-.4-.77-.84-1.08-1.31l-72.45-110.55c-.3-.46-.55-.96-.75-1.47-23.26-61.81-25.42-124.4-23.13-166.03 2.48-45.08 10.36-75.25 10.69-76.51 1-3.76 4.7-6.13 8.52-5.48 61.2 10.46 111.89 1.33 150.68-27.14 28.91-21.21 40.1-45.9 40.21-46.15 1.21-2.71 3.9-4.46 6.86-4.46h.03c2.97.01 5.65 1.76 6.84 4.48.11.23 11.3 24.92 40.21 46.13 38.79 28.47 89.49 37.6 150.68 27.14 3.83-.65 7.52 1.72 8.52 5.48.33 1.26 8.21 31.43 10.69 76.51 2.29 41.63.13 104.22-23.13 166.03z" fill="#ffe0a9"/><path d="m449.82 325.77c-.2.51-.45 1.01-.75 1.47l-72.45 110.55c-.31.47-.67.91-1.08 1.31-31.59 30.22-70.9 54.58-116.84 72.39-.87.34-1.79.51-2.71.51 45.28-18.6 80.62-50.55 108.03-78.32l68.42-110.55c34.14-96.04 20.1-187.65 13.89-217.69-1.18-5.72-6.61-9.48-12.39-8.68-136.93 18.99-177.93-96.76-177.93-96.76 2.97.01 5.65 1.76 6.84 4.48.11.23 11.3 24.92 40.21 46.13 38.79 28.47 89.49 37.6 150.68 27.14 3.83-.65 7.52 1.72 8.52 5.48.33 1.26 8.21 31.43 10.69 76.51 2.29 41.63.13 104.22-23.13 166.03z" fill="#ffcb78"/><g><path d="m433.74 249.59c-4.23 26.43-11.18 51.31-20.66 73.94-.26.63-.61 1.22-1.03 1.75l-87.29 110.56c-.42.53-.91 1-1.46 1.4-19.06 13.96-40.71 26.18-64.35 36.34-.95.41-1.96.61-2.96.61-1.01 0-2.02-.2-2.97-.61-23.63-10.16-45.28-22.38-64.34-36.34-.55-.4-1.04-.87-1.46-1.4l-87.29-110.56c-.42-.53-.77-1.12-1.03-1.75-9.22-22-16.05-46.13-20.31-71.72-8.53-51.24-5.09-98.51-.69-129.14.55-3.88 4-6.68 7.91-6.42 6.22.41 12.44.61 18.48.61 61.27 0 102.43-21.01 126.17-38.63 7.16-5.32 13.96-11.19 20.21-17.46 1.41-1.41 3.32-2.21 5.32-2.21 1.99 0 3.9.8 5.31 2.21 0 0 0 0 .01.01 6.25 6.27 13.04 12.14 20.2 17.45 23.74 17.63 64.9 38.63 126.17 38.63 6.07 0 12.31-.21 18.55-.61 3.89-.27 7.35 2.53 7.91 6.41 4.31 29.85 7.74 76.1-.4 126.93z" fill="#ffa757"/><path d="m433.74 249.59c-4.23 26.43-11.18 51.31-20.66 73.94-.26.63-.61 1.22-1.03 1.75l-87.29 110.56c-.42.53-.91 1-1.46 1.4-19.06 13.96-40.71 26.18-64.35 36.34 174.27-99.83 162.58-289.99 157.89-330.7-.51-4.39-4.14-7.77-8.56-7.9-107.68-3.14-146.37-73.1-146.97-74.2 6.25 6.27 13.04 12.14 20.2 17.45 23.74 17.63 64.9 38.63 126.17 38.63 6.07 0 12.31-.21 18.55-.61 3.89-.27 7.35 2.53 7.91 6.41 4.31 29.85 7.74 76.1-.4 126.93z" fill="#ff895a"/></g><g fill="#78c2ef"><path d="m505.28 479.36c-1.59.17-27.03 2.77-60.88 2.77-17.47 0-37.17-.69-57-2.77-2.25-.24-4.28-1.48-5.51-3.37-1.23-1.9-1.54-4.26-.84-6.41.03-.09 1.69-5.27 3.27-12.39 1.41-6.45 2.75-14.49 2.74-21.81 0-1.51.45-2.98 1.29-4.22l57.41-84.65c1.37-2.02 3.64-3.25 6.08-3.29 8.88-.16 17.06-.08 24.21.09 17.25.44 28.52 1.52 29.18 1.58 4.08.4 7.09 4.01 6.74 8.11-.13 1.6-3.33 36.64-20.77 59.13 17.44 22.49 20.64 57.53 20.77 59.13.35 4.07-2.62 7.68-6.69 8.1z"/><path d="m130.11 475.99c-1.24 1.89-3.26 3.13-5.51 3.37-19.83 2.08-39.53 2.77-57 2.77-33.86 0-59.29-2.6-60.88-2.77-4.07-.42-7.04-4.03-6.69-8.1.13-1.6 3.33-36.64 20.77-59.13-17.44-22.49-20.64-57.53-20.77-59.13-.35-4.1 2.66-7.71 6.74-8.11.66-.06 11.92-1.14 29.15-1.58 7.16-.17 15.35-.25 24.24-.09 2.44.04 4.71 1.27 6.08 3.29l57.41 84.65c.84 1.24 1.29 2.71 1.29 4.22-.01 7.32 1.33 15.36 2.74 21.81 1.58 7.12 3.24 12.3 3.27 12.39.7 2.16.39 4.51-.84 6.41z"/></g><path d="m124.94 435.38c-.01 7.32 1.33 15.36 2.74 21.81-24.49 1.75-39.02 3.35-39.34 3.39-.82.09-1.67.14-2.51.14-9.02 0-17.14-5.36-20.69-13.66-17.54-41.03-25.74-81.64-29.22-103.75 7.16-.17 15.35-.25 24.24-.09 2.44.04 4.71 1.27 6.08 3.29l57.41 84.65c.84 1.24 1.29 2.71 1.29 4.22z" fill="#74a1e2"/><path d="m476.05 343.31c-3.48 22.11-11.68 62.72-29.22 103.75-3.59 8.4-11.68 13.66-20.63 13.66-.85 0-1.71-.05-2.57-.14-.31-.04-14.84-1.64-39.31-3.39 1.41-6.45 2.75-14.49 2.74-21.81 0-1.51.45-2.98 1.29-4.22l57.41-84.65c1.37-2.02 3.64-3.25 6.08-3.29 8.88-.16 17.06-.08 24.21.09z" fill="#74a1e2"/><path d="m461.68 319.432c-1.271-1.534-3.1-2.499-5.083-2.683-.88-.081-89.277-8.146-200.611-8.146s-199.731 8.065-200.611 8.146c-1.983.184-3.812 1.149-5.083 2.683-1.271 1.533-1.88 3.51-1.692 5.493.225 2.375 5.789 58.825 30.337 116.241 1.19 2.783 3.92 4.552 6.894 4.552.278 0 .56-.016.841-.047.718-.081 72.903-8.067 169.315-8.067 96.413 0 168.599 7.987 169.316 8.067 3.294.37 6.433-1.461 7.734-4.505 24.547-57.416 30.111-113.866 30.336-116.241.187-1.984-.422-3.96-1.693-5.493z" fill="#78c2ef"/><g fill="#74a1e2"><path d="m371.882 350.312c-39.147-1.798-78.141-2.709-115.896-2.709-37.741 0-76.716.911-115.842 2.707-4.138.19-7.338 3.698-7.148 7.836.189 4.139 3.73 7.334 7.836 7.148 38.898-1.786 77.642-2.691 115.154-2.691 37.527 0 76.289.906 115.209 2.694.117.005.233.008.35.008 3.983 0 7.302-3.135 7.486-7.156.19-4.138-3.011-7.647-7.149-7.837z"/><path d="m337.336 383.956c-27.488-.897-54.858-1.353-81.351-1.353-26.479 0-53.83.455-81.295 1.351-4.141.135-7.387 3.601-7.252 7.741.136 4.14 3.612 7.376 7.74 7.251 27.304-.891 54.49-1.343 80.807-1.343 26.33 0 53.535.453 80.86 1.345.084.002.167.004.25.004 4.028 0 7.358-3.199 7.491-7.255.136-4.14-3.11-7.606-7.25-7.741z"/></g><g fill="#ffcb78"><circle cx="129.255" cy="272.176" r="7.5"/><circle cx="121.245" cy="235.175" r="7.5"/><circle cx="119.076" cy="196.955" r="7.5"/><circle cx="384.166" cy="272.176" r="7.5"/><circle cx="392.176" cy="235.175" r="7.5"/><circle cx="394.346" cy="196.955" r="7.5"/></g><path d="m328.107 190.103c-.91-2.845-3.42-4.877-6.387-5.173-.692-.069-16.206-1.596-39.672-2.422-10.252-26.697-19.179-46.024-19.274-46.227-1.227-2.648-3.876-4.342-6.789-4.342s-5.562 1.694-6.79 4.342c-.094.203-8.991 19.462-19.218 46.084-13.948.449-27.294 1.311-39.736 2.566-2.965.299-5.47 2.333-6.378 5.176-.909 2.844-.047 5.957 2.193 7.925 8.464 7.437 18.498 15.479 29.876 23.947-5.364 16.634-9.59 32.055-12.579 45.906-.627 2.907.519 5.91 2.922 7.656 1.305.949 2.848 1.429 4.396 1.429 1.3 0 2.604-.339 3.775-1.024.192-.112 18.382-10.781 41.539-26.038 23.157 15.257 41.348 25.926 41.54 26.038 2.563 1.5 5.769 1.341 8.171-.405 2.403-1.746 3.549-4.75 2.921-7.656-2.988-13.85-7.214-29.271-12.578-45.906 11.374-8.466 21.407-16.507 29.875-23.947 2.243-1.969 3.104-5.085 2.193-7.929z" fill="#ffe0a9"/></g></svg>