<?xml version="1.0" encoding="iso-8859-1"?>
<!-- Generator: Adobe Illustrator 19.0.0, SVG Export Plug-In . SVG Version: 6.00 Build 0)  -->
<svg version="1.1" id="Capa_1" xmlns="http://www.w3.org/2000/svg" xmlns:xlink="http://www.w3.org/1999/xlink" x="0px" y="0px"
	 viewBox="0 0 512 512" style="enable-background:new 0 0 512 512;" xml:space="preserve">
<g>
	<path style="fill:#D8DCE5;" d="M311.641,297.186c-4.265,0-7.722-3.457-7.722-7.722s3.457-7.722,7.722-7.722
		c15.986,0,28.991-13.005,28.991-28.991v-24.032h-28.991c-4.265,0-7.722-3.458-7.722-7.722s3.457-7.722,7.722-7.722h32.954
		c6.331,0,11.482,5.151,11.482,11.482v27.995C356.077,277.252,336.144,297.186,311.641,297.186z"/>
	<path style="fill:#D8DCE5;" d="M200.139,297.186c-24.502,0-44.436-19.934-44.436-44.436v-27.995
		c0-6.331,5.151-11.482,11.482-11.482h32.954c4.265,0,7.722,3.458,7.722,7.722s-3.458,7.722-7.722,7.722h-28.991v24.032
		c0,15.985,13.005,28.991,28.991,28.991c4.265,0,7.722,3.457,7.722,7.722S204.404,297.186,200.139,297.186z"/>
	<path style="fill:#D8DCE5;" d="M255.89,378.993c-4.265,0-7.722-3.457-7.722-7.722v-30.785c0-4.265,3.458-7.722,7.722-7.722
		c4.264,0,7.722,3.457,7.722,7.722v30.785C263.613,375.536,260.155,378.993,255.89,378.993z"/>
</g>
<path style="fill:#FFC850;" d="M257.424,23.365l11.037,22.364c0.249,0.505,0.731,0.855,1.288,0.936l24.68,3.586
	c1.403,0.204,1.963,1.928,0.948,2.918l-17.858,17.408c-0.403,0.393-0.587,0.959-0.492,1.514l4.216,24.58
	c0.24,1.397-1.227,2.463-2.482,1.803l-22.074-11.605c-0.498-0.262-1.094-0.262-1.592,0l-22.074,11.605
	c-1.255,0.66-2.722-0.406-2.482-1.803l4.216-24.58c0.095-0.555-0.089-1.121-0.492-1.514l-17.859-17.408
	c-1.015-0.99-0.455-2.714,0.948-2.918l24.68-3.586c0.557-0.081,1.039-0.431,1.288-0.936l11.037-22.364
	C254.984,22.094,256.797,22.094,257.424,23.365z"/>
<g>
	<path style="fill:#F9B428;" d="M262.624,43.619c0.557-0.081,1.039-0.431,1.288-0.936l1.523-3.086l-8.011-16.232
		c-0.627-1.271-2.44-1.271-3.068,0l-11.037,22.364c-0.186,0.376-0.501,0.666-0.88,0.823L262.624,43.619z"/>
	<path style="fill:#F9B428;" d="M255.347,69.045c0.095-0.555-0.089-1.121-0.492-1.514l-17.859-17.408
		c-0.922-0.898-0.537-2.39,0.59-2.812l-20.235,2.94c-1.403,0.204-1.963,1.928-0.948,2.918l17.859,17.408
		c0.403,0.393,0.587,0.959,0.492,1.514l-4.216,24.58c-0.24,1.397,1.227,2.463,2.482,1.803l18.992-9.985L255.347,69.045z"/>
</g>
<path style="fill:#E4EAF8;" d="M306.856,207.085H204.411c-2.928,0-5.302,2.374-5.302,5.302v71.318
	c0,31.229,25.551,56.781,56.781,56.781l0,0c31.229,0,56.781-25.551,56.781-56.781V212.9
	C312.671,209.689,310.068,207.085,306.856,207.085z"/>
<path style="fill:#D8DCE5;" d="M220.073,283.705v-71.318c0-2.928,2.374-5.302,5.302-5.302h-20.964c-2.928,0-5.302,2.374-5.302,5.302
	v71.318c0,31.229,25.551,56.781,56.781,56.781l0,0c3.58,0,7.081-0.351,10.482-0.993
	C240.107,334.538,220.073,311.354,220.073,283.705z"/>
<path style="fill:#E4EAF8;" d="M272.072,371.271h-32.363c-9.551,0-17.366,7.815-17.366,17.366s7.815,17.366,17.366,17.366h32.363
	c9.551,0,17.366-7.815,17.366-17.366S281.623,371.271,272.072,371.271z"/>
<path style="fill:#D8DCE5;" d="M272.072,384.637h-32.363c-5.527,0-10.462-2.627-13.648-6.683c-2.319,2.953-3.718,6.659-3.718,10.683
	c0,9.551,7.815,17.366,17.366,17.366h32.363c9.551,0,17.366-7.815,17.366-17.366c0-4.024-1.399-7.73-3.718-10.683
	C282.533,382.01,277.599,384.637,272.072,384.637z"/>
<g>
	<path style="fill:#FFC850;" d="M155.5,390.293c0.708-0.367,1.578-0.291,2.213,0.192c19.263,14.659,16.65,44.318-4.804,55.423
		c-0.708,0.367-1.578,0.291-2.213-0.192C131.428,431.054,134.047,401.398,155.5,390.293z"/>
	<path style="fill:#FFC850;" d="M126.675,346.416c0.797-0.028,1.551,0.413,1.918,1.121c11.128,21.501-3.928,47.178-28.076,48.025
		c-0.797,0.028-1.551-0.413-1.918-1.121C87.467,372.942,102.532,347.259,126.675,346.416z"/>
	<path style="fill:#FFC850;" d="M97.947,290.44c0.797,0.031,1.516,0.526,1.83,1.259c9.518,22.264-7.4,46.755-31.539,45.824
		c-0.797-0.031-1.517-0.526-1.83-1.26c-4.285-10.027-3.502-21.962,3.136-31.611C76.183,295.006,87.052,290.018,97.947,290.44z"/>
	<path style="fill:#FFC850;" d="M114.828,239.06c0.631,0.488,0.929,1.309,0.759,2.088c-5.177,23.646-33.173,33.774-52.288,18.995
		c-0.631-0.488-0.929-1.309-0.759-2.088C67.718,234.409,95.716,224.282,114.828,239.06z"/>
	<path style="fill:#FFC850;" d="M142.834,189.184c0.5,0.622,0.599,1.489,0.251,2.207c-10.552,21.791-40.133,25.11-55.276,6.284
		c-0.5-0.622-0.599-1.489-0.251-2.207c4.752-9.815,14.271-17.059,25.906-18.383C125.102,175.765,136,180.688,142.834,189.184z"/>
	<path style="fill:#FFC850;" d="M68.516,122.605c0.579-0.549,1.436-0.717,2.18-0.429c22.579,8.746,28.283,37.961,10.75,54.582
		c-0.579,0.549-1.436,0.718-2.18,0.43C56.691,168.442,50.983,139.222,68.516,122.605z"/>
	<path style="fill:#FFC850;" d="M36.094,181.75c0.52-0.605,1.356-0.859,2.125-0.648c23.346,6.41,31.99,34.892,16.232,53.21
		c-0.52,0.605-1.356,0.86-2.125,0.648C28.978,228.545,20.337,200.061,36.094,181.75z"/>
	<path style="fill:#FFC850;" d="M5.429,252.837c0.184-0.776,0.808-1.387,1.588-1.553c23.677-5.052,44.46,16.263,38.893,39.775
		c-0.184,0.776-0.808,1.387-1.589,1.553C20.681,297.648-0.144,276.388,5.429,252.837z"/>
	<path style="fill:#FFC850;" d="M0.061,328.505c-0.194-0.774,0.08-1.603,0.696-2.11c8.424-6.926,20.097-9.524,31.22-5.854
		c11.122,3.668,18.959,12.7,21.611,23.28c0.194,0.774-0.08,1.603-0.696,2.11C34.22,361.277,5.942,351.983,0.061,328.505z"/>
	<path style="fill:#FFC850;" d="M20.817,394.34c-0.464-0.649-0.514-1.521-0.127-2.218c11.757-21.167,41.478-22.817,55.544-3.174
		c0.465,0.649,0.514,1.521,0.127,2.219C64.62,412.294,34.907,414.02,20.817,394.34z"/>
	<path style="fill:#FFC850;" d="M57.713,452.206c-0.683-0.413-1.073-1.194-0.992-1.988c2.45-24.085,29.102-37.339,49.781-24.838
		c0.683,0.413,1.073,1.194,0.992,1.988C105.049,451.416,78.43,464.728,57.713,452.206z"/>
	<path style="fill:#FFC850;" d="M99.982,484.796c-0.683-0.413-1.073-1.194-0.992-1.988c2.448-24.086,29.096-37.343,49.78-24.841
		c0.683,0.413,1.073,1.195,0.992,1.989C147.311,484.003,120.697,497.315,99.982,484.796z"/>
</g>
<g>
	<path style="fill:#F9B428;" d="M165.29,398.618c-2.049-3.109-4.603-5.87-7.576-8.133c-0.634-0.483-1.505-0.558-2.213-0.192
		c-21.502,11.13-24.028,40.794-4.804,55.423c0.635,0.483,1.505,0.558,2.213,0.192c3.959-2.049,7.455-4.893,10.289-8.324
		C155.201,425.451,156.152,409.683,165.29,398.618z"/>
	<path style="fill:#F9B428;" d="M130.313,351.485c-0.488-1.349-1.058-2.669-1.72-3.948c-0.367-0.708-1.12-1.149-1.918-1.121
		c-24.196,0.845-39.184,26.573-28.076,48.025c0.367,0.708,1.121,1.149,1.918,1.121c5.812-0.204,11.496-1.957,16.439-5.071
		C111.666,375.879,117.278,359.695,130.313,351.485z"/>
	<path style="fill:#F9B428;" d="M100.815,294.517c-0.849-2.628-1.271-4.015-2.868-4.077c-24.146-0.936-41.051,23.568-31.54,45.824
		c0.314,0.734,1.033,1.229,1.831,1.26c5.977,0.23,11.942-1.177,17.209-4.078C80.519,318.21,87.202,302.016,100.815,294.517z"/>
	<path style="fill:#F9B428;" d="M83.378,260.143c-0.631-0.488-0.929-1.309-0.759-2.088c2.332-10.654,9.901-19.917,20.908-23.914
		c0.395-0.144,0.793-0.261,1.19-0.389c-18.327-5.898-37.986,5.164-42.176,24.303c-0.17,0.779,0.128,1.6,0.759,2.088
		c8.316,6.43,19.529,8.734,30.188,5.308C89.844,264.279,86.415,262.492,83.378,260.143z"/>
	<path style="fill:#F9B428;" d="M107.888,197.676c-0.5-0.622-0.599-1.49-0.251-2.208c3.855-7.961,10.845-14.229,19.558-17.02
		c-15.483-4.966-32.424,2.125-39.636,17.02c-0.348,0.718-0.249,1.586,0.251,2.208c8.504,10.573,22.622,14.93,35.718,10.737
		C117.358,206.433,111.914,202.682,107.888,197.676z"/>
	<path style="fill:#F9B428;" d="M82.659,130.174c-3.35-3.507-7.439-6.246-11.963-7.998c-0.744-0.288-1.6-0.119-2.179,0.429
		c-17.57,16.653-11.781,45.854,10.75,54.582c0.744,0.288,1.601,0.119,2.179-0.429c2.344-2.222,4.336-4.78,5.936-7.57
		C77.536,158.878,75.275,143.055,82.659,130.174z"/>
	<path style="fill:#F9B428;" d="M51.673,188.508c-3.842-3.486-8.455-6.034-13.453-7.406c-0.769-0.211-1.604,0.044-2.125,0.648
		c-15.792,18.351-7.063,46.81,16.232,53.21c0.769,0.211,1.605-0.043,2.126-0.648c1.775-2.064,3.286-4.337,4.5-6.76
		C48.096,217.7,45.024,201.776,51.673,188.508z"/>
	<path style="fill:#F9B428;" d="M25.508,252.837c0.012-0.052,0.042-0.097,0.058-0.148c-5.934-2.242-12.389-2.72-18.548-1.406
		c-0.78,0.166-1.405,0.777-1.588,1.553c-5.567,23.521,15.223,44.817,38.893,39.775c0.729-0.155,1.307-0.705,1.532-1.409
		C30.542,285.419,21.656,269.114,25.508,252.837z"/>
	<path style="fill:#F9B428;" d="M20.139,328.505c-0.194-0.774,0.08-1.603,0.696-2.109c3.221-2.648,6.919-4.657,10.877-5.931
		c-11.043-3.543-22.598-0.94-30.955,5.931c-0.616,0.507-0.889,1.336-0.696,2.109c4.656,18.581,23.974,29.14,41.951,23.357
		C30.845,348.269,22.842,339.294,20.139,328.505z"/>
	<path style="fill:#F9B428;" d="M40.895,394.34c-0.464-0.649-0.514-1.521-0.127-2.218c4.007-7.213,10.657-12.798,18.72-15.382
		c-14.943-4.792-31.156,1.624-38.798,15.382c-0.388,0.697-0.337,1.57,0.127,2.218c8.336,11.643,23.159,16.585,36.821,12.207
		C50.856,404.371,44.988,400.056,40.895,394.34z"/>
	<path style="fill:#F9B428;" d="M77.792,452.206c-0.683-0.413-1.073-1.194-0.992-1.988c1.3-12.778,9.895-23.904,22.681-28.022
		c-19.896-6.379-40.636,7.148-42.759,28.022c-0.08,0.794,0.309,1.576,0.992,1.988c7.98,4.824,17.854,6.161,27.102,3.184
		C82.366,454.604,80.004,453.544,77.792,452.206z"/>
	<path style="fill:#F9B428;" d="M120.061,484.796c-0.683-0.413-1.073-1.194-0.992-1.988c1.103-10.85,7.56-20.917,18.037-26.146
		c1.52-0.758,3.073-1.373,4.642-1.878c-19.895-6.378-40.636,7.144-42.758,28.024c-0.08,0.794,0.31,1.575,0.992,1.988
		c7.978,4.822,17.852,6.159,27.099,3.181C124.633,487.193,122.272,486.133,120.061,484.796z"/>
</g>
<g>
	<path style="fill:#FFC850;" d="M176.2,479.105c2.547,0,5.04-1.259,6.514-3.565c2.297-3.594,1.246-8.369-2.348-10.666
		C75.984,398.157,25.632,307.253,85.154,199.806c15.123-27.3,31.709-44.315,31.875-44.484c2.988-3.04,2.95-7.928-0.088-10.919
		c-3.039-2.989-7.922-2.955-10.914,0.079c-0.727,0.737-17.984,18.384-34.124,47.373c-21.479,38.579-30.581,79.017-26.321,116.943
		c7.086,63.093,49.636,119.983,126.467,169.09C173.336,478.712,174.777,479.105,176.2,479.105z"/>
	<path style="fill:#FFC850;" d="M356.498,390.293c-0.708-0.367-1.578-0.291-2.213,0.192c-19.263,14.659-16.65,44.318,4.804,55.423
		c0.708,0.367,1.578,0.291,2.213-0.192C380.57,431.054,377.952,401.398,356.498,390.293z"/>
	<path style="fill:#FFC850;" d="M385.323,346.416c-0.797-0.028-1.551,0.413-1.918,1.121c-11.128,21.501,3.928,47.178,28.076,48.025
		c0.797,0.028,1.551-0.413,1.918-1.121C424.531,372.942,409.466,347.259,385.323,346.416z"/>
	<path style="fill:#FFC850;" d="M414.051,290.44c-0.797,0.031-1.516,0.526-1.83,1.259c-9.518,22.264,7.4,46.755,31.539,45.824
		c0.797-0.031,1.517-0.526,1.83-1.26C455.089,314.04,438.236,289.503,414.051,290.44z"/>
	<path style="fill:#FFC850;" d="M397.17,239.06c-0.631,0.488-0.929,1.309-0.759,2.088c5.177,23.646,33.173,33.774,52.288,18.995
		c0.631-0.488,0.929-1.309,0.759-2.088c-2.333-10.654-9.901-19.918-20.908-23.914C417.542,230.142,405.795,232.391,397.17,239.06z"
		/>
	<path style="fill:#FFC850;" d="M369.164,189.184c-0.5,0.622-0.599,1.489-0.251,2.207c10.552,21.791,40.133,25.11,55.276,6.284
		c0.5-0.622,0.599-1.489,0.251-2.207C413.888,173.676,384.304,170.361,369.164,189.184z"/>
	<path style="fill:#FFC850;" d="M443.482,122.605c-0.579-0.549-1.436-0.717-2.18-0.429c-22.579,8.746-28.283,37.961-10.75,54.582
		c0.579,0.549,1.436,0.718,2.18,0.43C455.307,168.442,461.015,139.222,443.482,122.605z"/>
	<path style="fill:#FFC850;" d="M475.904,181.75c-0.52-0.605-1.356-0.859-2.125-0.648c-23.346,6.41-31.99,34.892-16.232,53.21
		c0.52,0.605,1.356,0.86,2.125,0.648C483.02,228.545,491.661,200.061,475.904,181.75z"/>
	<path style="fill:#FFC850;" d="M506.569,252.837c-0.184-0.776-0.808-1.387-1.588-1.553c-23.677-5.052-44.46,16.263-38.893,39.775
		c0.184,0.776,0.808,1.387,1.589,1.553C491.317,297.648,512.143,276.388,506.569,252.837z"/>
	<path style="fill:#FFC850;" d="M511.938,328.505c0.194-0.774-0.08-1.603-0.696-2.11c-18.699-15.375-46.957-6.012-52.831,17.427
		c-0.194,0.774,0.08,1.603,0.696,2.11C477.778,361.277,506.056,351.983,511.938,328.505z"/>
	<path style="fill:#FFC850;" d="M491.181,394.34c0.464-0.649,0.514-1.521,0.127-2.218c-11.757-21.167-41.478-22.817-55.544-3.174
		c-0.465,0.649-0.514,1.521-0.127,2.219C447.378,412.294,477.091,414.02,491.181,394.34z"/>
	<path style="fill:#FFC850;" d="M454.285,452.206c0.683-0.413,1.073-1.194,0.992-1.988c-2.45-24.085-29.102-37.339-49.781-24.838
		c-0.683,0.413-1.073,1.194-0.992,1.988C406.949,451.416,433.568,464.728,454.285,452.206z"/>
	<path style="fill:#FFC850;" d="M412.016,484.796c0.683-0.413,1.073-1.194,0.992-1.988c-2.448-24.086-29.096-37.343-49.78-24.841
		c-0.683,0.413-1.073,1.195-0.992,1.989C364.687,484.003,391.301,497.315,412.016,484.796z"/>
</g>
<g>
	<path style="fill:#F9B428;" d="M367.074,398.964c-2.882-3.588-6.484-6.553-10.576-8.671c-0.708-0.367-1.578-0.291-2.213,0.192
		c-19.263,14.659-16.651,44.318,4.804,55.423c0.708,0.367,1.578,0.291,2.213-0.192c3.084-2.347,5.719-5.227,7.804-8.478
		C360.398,426.395,359.349,411.015,367.074,398.964z"/>
	<path style="fill:#F9B428;" d="M402.189,351.752c-5.04-3.283-10.886-5.127-16.866-5.336c-0.797-0.028-1.551,0.413-1.917,1.121
		c-11.128,21.5,3.926,47.178,28.076,48.025c0.797,0.028,1.551-0.413,1.918-1.121c0.706-1.363,1.303-2.775,1.811-4.216
		C402.568,381.99,397.112,366.16,402.189,351.752z"/>
	<path style="fill:#F9B428;" d="M431.7,294.752c-5.373-3.067-11.507-4.55-17.649-4.312c-0.797,0.031-1.516,0.526-1.83,1.259
		c-9.518,22.263,7.399,46.755,31.539,45.824c0.797-0.031,1.517-0.526,1.83-1.26c0.427-0.999,0.789-2.021,1.115-3.054
		C433.551,325.702,426.939,309.848,431.7,294.752z"/>
	<path style="fill:#F9B428;" d="M417.004,241.148c-0.171-0.779,0.127-1.6,0.758-2.088c2.967-2.294,6.308-4.05,9.855-5.223
		c-10.735-3.547-22.066-1.258-30.449,5.223c-0.631,0.488-0.929,1.309-0.758,2.088c2.333,10.655,9.898,19.916,20.907,23.913
		c7.223,2.625,14.758,2.545,21.527,0.305C427.324,261.56,419.409,252.13,417.004,241.148z"/>
	<path style="fill:#F9B428;" d="M389.506,191.391c-0.347-0.718-0.249-1.586,0.251-2.207c3.968-4.933,9.31-8.649,15.367-10.65
		c-13.322-4.385-27.504,0.136-35.96,10.65c-0.5,0.622-0.599,1.489-0.251,2.207c7.286,15.046,24.426,22.051,39.908,16.935
		C400.223,205.498,393.326,199.279,389.506,191.391z"/>
	<path style="fill:#F9B428;" d="M449.62,130.516c-1.63-2.925-3.698-5.598-6.139-7.911c-0.579-0.549-1.436-0.717-2.179-0.429
		c-22.579,8.747-28.282,37.961-10.75,54.582c0.579,0.549,1.436,0.718,2.18,0.429c4.668-1.808,8.867-4.672,12.275-8.342
		C438.045,156.354,439.973,140.905,449.62,130.516z"/>
	<path style="fill:#F9B428;" d="M480.555,188.834c-1.24-2.543-2.797-4.929-4.651-7.084c-0.52-0.605-1.356-0.859-2.125-0.648
		c-23.346,6.41-31.99,34.892-16.232,53.21c0.52,0.605,1.356,0.86,2.125,0.648c5.154-1.416,9.905-4.077,13.816-7.734
		C467.012,213.944,470.268,198.451,480.555,188.834z"/>
	<path style="fill:#F9B428;" d="M506.575,252.868c-0.002-0.01-0.004-0.021-0.006-0.031c-0.184-0.776-0.808-1.387-1.588-1.553
		c-23.677-5.052-44.459,16.263-38.894,39.775c0.184,0.776,0.808,1.387,1.589,1.553c6.315,1.345,12.94,0.804,18.997-1.588
		C482.892,274.973,491.487,258.824,506.575,252.868z"/>
	<path style="fill:#F9B428;" d="M479.701,345.932c-0.616-0.507-0.89-1.336-0.696-2.11c2.652-10.58,10.489-19.613,21.611-23.28
		c0.001,0,0.003-0.001,0.004-0.001c-17.965-5.943-37.511,4.541-42.208,23.281c-0.194,0.774,0.08,1.603,0.696,2.11
		c8.423,6.923,20.098,9.52,31.219,5.853C486.462,350.508,482.853,348.523,479.701,345.932z"/>
	<path style="fill:#F9B428;" d="M456.231,391.166c-0.388-0.697-0.338-1.57,0.127-2.218c4.043-5.646,9.814-9.928,16.489-12.129
		c-13.536-4.461-28.583,0.259-37.082,12.129c-0.465,0.649-0.515,1.521-0.127,2.218c7.777,13.995,24.236,20.189,39.057,15.301
		C466.746,403.849,460.196,398.302,456.231,391.166z"/>
	<path style="fill:#F9B428;" d="M425.097,427.368c-0.081-0.794,0.309-1.575,0.992-1.988c2.138-1.292,4.416-2.322,6.778-3.1
		c-9.322-3.092-19.312-1.772-27.371,3.1c-0.683,0.413-1.073,1.194-0.992,1.988c2.122,20.871,22.955,34.537,43.002,27.939
		C434.963,451.148,426.395,440.138,425.097,427.368z"/>
	<path style="fill:#F9B428;" d="M382.829,459.956c-0.081-0.794,0.309-1.576,0.992-1.989c2.138-1.292,4.416-2.322,6.777-3.099
		c-9.323-3.09-19.312-1.772-27.37,3.099c-0.683,0.413-1.073,1.195-0.992,1.989c2.141,21.011,23.075,34.498,43.004,27.938
		C392.683,483.731,384.13,472.714,382.829,459.956z"/>
</g>
<g>
	<path style="fill:#FFC850;" d="M329.284,475.54c-2.297-3.594-1.246-8.369,2.348-10.666
		c104.382-66.717,154.734-157.622,95.212-265.069c-15.123-27.3-31.709-44.315-31.875-44.484c-2.988-3.04-2.95-7.928,0.088-10.919
		c3.039-2.989,7.922-2.955,10.914,0.079c0.727,0.737,17.984,18.384,34.124,47.373c21.479,38.579,30.581,79.017,26.321,116.943
		c-7.086,63.093-49.636,119.983-126.467,169.09C336.358,480.184,331.582,479.136,329.284,475.54z"/>
	<path style="fill:#FFC850;" d="M151.999,110.518c0.587,0.156,1.043,0.638,1.165,1.233c4.908,23.966-17.055,44.689-40.687,38.421
		c-0.587-0.156-1.043-0.638-1.165-1.233C106.404,124.973,128.371,104.251,151.999,110.518z"/>
</g>
<path style="fill:#F9B428;" d="M141.023,118.384c3.525-3.328,7.595-5.708,11.899-7.182c-0.215-0.327-0.535-0.582-0.923-0.685
	c-23.646-6.272-45.592,14.473-40.687,38.421c0.122,0.595,0.578,1.078,1.164,1.233c6.28,1.665,12.962,1.437,19.156-0.684
	C130.8,148.223,127.608,131.056,141.023,118.384z"/>
<path style="fill:#FFC850;" d="M359.999,110.518c-0.587,0.156-1.043,0.638-1.165,1.233c-4.908,23.966,17.055,44.689,40.687,38.421
	c0.587-0.156,1.043-0.638,1.165-1.233C405.594,124.973,383.627,104.251,359.999,110.518z"/>
<path style="fill:#F9B428;" d="M389.06,142.304c-12.323-11.635-10.896-28.206-9.488-30.957c-6.31-2.257-13.153-2.532-19.573-0.829
	c-0.587,0.156-1.043,0.638-1.165,1.233c-2.21,10.791,1.036,22.437,9.632,30.553c13.177,12.444,31.082,8.982,32.075,7.039
	C396.391,147.859,392.47,145.525,389.06,142.304z"/>
<g>
</g>
<g>
</g>
<g>
</g>
<g>
</g>
<g>
</g>
<g>
</g>
<g>
</g>
<g>
</g>
<g>
</g>
<g>
</g>
<g>
</g>
<g>
</g>
<g>
</g>
<g>
</g>
<g>
</g>
</svg>
