<?xml version="1.0" encoding="iso-8859-1"?>
<!-- Generator: Adobe Illustrator 21.0.0, SVG Export Plug-In . SVG Version: 6.00 Build 0)  -->
<svg version="1.1" id="Capa_1" xmlns="http://www.w3.org/2000/svg" xmlns:xlink="http://www.w3.org/1999/xlink" x="0px" y="0px"
	 viewBox="0 0 512 512" style="enable-background:new 0 0 512 512;" xml:space="preserve">
<path style="fill:#0F9AF0;" d="M512,256c0-13.212-4.221-25.748-12.193-36.236c-5.131-6.771-6.841-15.367-4.696-23.565
	c3.356-12.763,2.459-25.96-2.597-38.165c-5.057-12.206-13.754-22.173-25.133-28.813c-7.332-4.291-12.201-11.579-13.357-19.974
	c-1.782-13.075-7.662-24.924-17.004-34.267c-9.341-9.342-21.19-15.222-34.246-17.001c-8.415-1.159-15.703-6.028-19.983-13.34
	c-6.649-11.399-16.616-20.097-28.823-25.153c-7.323-3.033-15.032-4.571-22.912-4.571c-5.138,0-10.27,0.665-15.232,1.971
	c-2.272,0.594-4.614,0.896-6.961,0.896c-5.965,0-11.869-1.984-16.606-5.574C281.749,4.221,269.213,0,256,0l-60,256l60,256
	c13.213,0,25.749-4.221,36.237-12.193c4.755-3.604,10.658-5.587,16.623-5.587c2.346,0,4.688,0.301,6.941,0.891
	c4.983,1.311,10.114,1.975,15.251,1.975c7.881,0,15.591-1.538,22.914-4.571c12.206-5.057,22.173-13.754,28.813-25.133
	c4.291-7.332,11.579-12.201,19.974-13.357c13.076-1.782,24.926-7.662,34.268-17.005c9.341-9.342,15.221-21.19,17-34.245
	c1.159-8.415,6.028-15.703,13.341-19.983c11.398-6.65,20.096-16.617,25.152-28.823c5.055-12.204,5.953-25.401,2.602-38.146
	c-2.149-8.218-0.439-16.814,4.678-23.567C507.779,281.748,512,269.212,512,256z"/>
<path style="fill:#13BDF7;" d="M219.763,12.193c-4.754,3.604-10.658,5.588-16.625,5.588c-2.345,0-4.687-0.302-6.938-0.89
	c-4.984-1.312-10.116-1.977-15.254-1.977c-7.88,0-15.589,1.538-22.913,4.571c-12.206,5.057-22.173,13.754-28.813,25.134
	c-4.291,7.331-11.579,12.2-19.973,13.356C96.171,59.759,84.322,65.639,74.98,74.98c-9.342,9.343-15.222,21.192-17,34.246
	c-1.16,8.415-6.029,15.703-13.341,19.983c-11.399,6.65-20.097,16.617-25.152,28.823c-5.056,12.205-5.954,25.402-2.602,38.145
	c2.149,8.219,0.439,16.814-4.679,23.567C4.221,230.252,0,242.788,0,256s4.221,25.748,12.193,36.237
	c5.131,6.771,6.841,15.366,4.697,23.564c-3.357,12.763-2.459,25.96,2.596,38.164c5.056,12.209,13.754,22.176,25.133,28.813
	c7.331,4.291,12.201,11.579,13.357,19.973c1.782,13.077,7.662,24.927,17.004,34.268c9.343,9.343,21.192,15.223,34.246,17.001
	c8.415,1.159,15.703,6.028,19.983,13.341c6.65,11.398,16.617,20.096,28.823,25.152c7.324,3.033,15.034,4.572,22.915,4.572
	c5.137,0,10.268-0.665,15.23-1.971c2.273-0.595,4.615-0.896,6.961-0.896c5.965,0,11.869,1.983,16.605,5.573
	C230.251,507.779,242.788,512,256,512V0C242.789,0,230.253,4.221,219.763,12.193z"/>
<path style="fill:#085AAE;" d="M256,61l-43.015,195L256,451c107.696,0,195-87.304,195-195S363.696,61,256,61z"/>
<path style="fill:#0A77E8;" d="M61,256c0,107.696,87.304,195,195,195V61C148.304,61,61,148.304,61,256z"/>
<polygon style="fill:#B2F5FF;" points="256,164.081 226,269.081 392.442,239.081 353.771,164.081 "/>
<polygon style="fill:#FFFFFF;" points="256,164.081 158.229,164.081 119.558,239.081 256,269.081 "/>
<polygon style="fill:#18E0FF;" points="256,395.914 392.442,239.081 256,239.081 226,317.497 "/>
<polygon style="fill:#B2F5FF;" points="119.558,239.081 256,395.914 256,239.081 "/>
<g>
</g>
<g>
</g>
<g>
</g>
<g>
</g>
<g>
</g>
<g>
</g>
<g>
</g>
<g>
</g>
<g>
</g>
<g>
</g>
<g>
</g>
<g>
</g>
<g>
</g>
<g>
</g>
<g>
</g>
</svg>
