<svg id="Capa_1" enable-background="new 0 0 512 512" height="512" viewBox="0 0 512 512" width="512" xmlns="http://www.w3.org/2000/svg"><g><g><g><g><g><g><g><g><g><circle cx="256" cy="256" fill="#7584f2" r="256"/></g></g></g></g></g></g></g></g><path d="m264.447 511.863c137.475-4.457 247.553-117.305 247.553-255.863 0-16.122-1.491-31.896-4.341-47.191l-133.807-133.808-23.124 77.784-77.784-77.784 6.714 109.719-109.72-109.719-78.128 65.46 75.038 75.038-12.356 186.408z" fill="#4855b7"/><g><path d="m392.278 134.001-28.107-40.5h-10.798c-8.53 16.659-25.869 28.061-45.871 28.061s-37.341-11.402-45.871-28.061h-11.263c-8.53 16.659-25.869 28.061-45.871 28.061s-37.341-11.402-45.871-28.061h-10.798l-28.107 40.5s29.719 16.798 29.719 65.899-31.011 98.202-14.86 146.011c16.153 47.809 121.42 102.56 121.42 102.56s105.267-54.751 121.419-102.56-14.86-96.91-14.86-146.011 29.719-65.899 29.719-65.899z" fill="#ffde55"/><path d="m392.278 134.001-28.106-40.5h-10.798c-8.53 16.659-25.869 28.061-45.871 28.061s-37.341-11.402-45.871-28.061h-5.632v354.963c.604-.314 105.314-54.882 121.419-102.553 16.152-47.809-14.859-96.91-14.859-146.011-.001-49.101 29.718-65.899 29.718-65.899z" fill="#ffce00"/><path d="m256 469.324-8.537-4.44c-1.117-.581-27.694-14.462-56.663-34.565-40.938-28.409-65.749-54.815-73.746-78.486-11.46-33.921-3.283-66.42 4.624-97.85 4.763-18.932 9.262-36.815 9.262-54.083 0-35.359-18.35-48.474-20.467-49.867l-18.664-9.571 12.713-17.009 33.625-48.452h31.79l5.155 10.068c5.683 11.099 16.95 17.993 29.404 17.993s23.721-6.895 29.404-17.993l5.155-10.069h33.887l5.155 10.068c5.683 11.099 16.95 17.993 29.404 17.993s23.722-6.895 29.404-17.993l5.155-10.068h31.789l45.677 65.817-18.003 9.215c-2.122 1.398-20.466 14.514-20.466 49.867 0 17.268 4.499 35.151 9.262 54.083 7.907 31.429 16.084 63.928 4.625 97.849-7.998 23.671-32.81 50.077-73.746 78.486-28.97 20.104-55.547 33.984-56.664 34.565zm-111.776-338.181c10.955 12.383 23.717 34.22 23.717 68.757 0 21.851-5.277 42.826-10.38 63.111-6.905 27.447-13.428 53.372-5.452 76.98 9.294 27.51 65.376 66.185 103.892 87.481 38.512-21.293 94.597-59.969 103.893-87.481 7.975-23.607 1.452-49.532-5.453-76.979-5.103-20.284-10.38-41.26-10.38-63.111 0-34.537 12.762-56.374 23.717-68.757l-9.162-13.201c-13.029 13.954-31.364 22.122-51.111 22.122-19.945 0-38.45-8.333-51.503-22.544-13.052 14.211-31.557 22.544-51.502 22.544-19.747 0-38.083-8.168-51.112-22.122z" fill="#ffce00"/><path d="m401.525 150.033 18.003-9.215-45.677-65.817h-31.789l-5.155 10.068c-5.683 11.099-16.95 17.993-29.404 17.993s-23.722-6.895-29.404-17.993l-5.155-10.068h-16.944v42.532c13.052 14.202 31.565 22.53 51.503 22.53 19.747 0 38.082-8.167 51.111-22.122l9.162 13.201c-10.955 12.383-23.717 34.22-23.717 68.757 0 21.851 5.277 42.826 10.38 63.111 6.905 27.447 13.428 53.372 5.453 76.979-9.295 27.509-65.381 66.178-103.893 87.473v41.854l8.536-4.433c1.117-.581 27.694-14.462 56.664-34.565 40.937-28.409 65.748-54.815 73.746-78.486 11.459-33.921 3.282-66.42-4.625-97.849-4.763-18.933-9.262-36.815-9.262-54.083.002-35.353 18.345-48.469 20.467-49.867z" fill="#fdba12"/></g><g><path d="m256 185.61 22.871 46.342 51.141 7.431-37.006 36.072 8.736 50.935-45.742-24.048-45.742 24.048 8.736-50.935-37.006-36.072 51.141-7.431z" fill="#fa0"/></g><g><path d="m293.006 275.455 37.006-36.072-51.141-7.431-22.871-46.313v116.71l45.742 24.041z" fill="#ff9500"/></g></g></svg>